<svg aria-hidden="true" style="position: absolute; width: 0; height: 0; overflow: hidden;" version="1.1" xmlns="http://www.w3.org/2000/svg" xmlns:xlink="http://www.w3.org/1999/xlink">
<defs>
<symbol id="icon-chat" viewBox="0 0 46 32">
<path d="M35.371 13.998c0-8.062-8.498-13.346-16.983-13.346-8.521 0-16.983 5.308-16.983 13.346 0 3.040 1.332 6.014 3.751 8.373 0.091 0.089 0.126 0.228 0.091 0.356-0.759 2.784-2.558 5.298-3.296 6.249-0.127 0.16-0.204 0.366-0.204 0.589 0 0.158 0.039 0.307 0.107 0.439l-0.002-0.005c0.16 0.314 0.48 0.526 0.851 0.526 0.002 0 0.004 0 0.006-0h0.025c3.612-0.089 7.799-1.109 10.388-3.653 0.089-0.089 0.22-0.124 0.347-0.094 1.591 0.377 3.246 0.569 4.921 0.569 8.516 0 16.983-5.308 16.983-13.348zM13.765 25.518c-0.117-0.029-0.251-0.046-0.389-0.046-0.453 0-0.864 0.182-1.163 0.477l0-0c-2.588 2.544-6.814 3.124-8.816 3.253 0.914-1.262 2.4-3.58 3.097-6.133 0.038-0.132 0.059-0.283 0.059-0.44 0-0.463-0.19-0.882-0.496-1.183l-0-0c-2.197-2.144-3.36-4.718-3.36-7.447 0-6.645 7.040-12.053 15.691-12.053s15.689 5.408 15.689 12.053c0 6.647-7.038 12.053-15.689 12.053-1.575 0-3.129-0.178-4.622-0.533z"></path>
<path d="M39.529 24.743c3.771-1.906 6.021-5.152 6.021-8.688 0-4.996-4.516-9.262-10.736-10.148-0.018-0.002-0.039-0.003-0.060-0.003-0.357 0-0.647 0.29-0.647 0.647 0 0.315 0.225 0.577 0.522 0.635l0.004 0.001c5.577 0.795 9.625 4.523 9.625 8.868 0 3.036-1.986 5.852-5.312 7.534-0.524 0.27-0.877 0.807-0.877 1.427 0 0.117 0.012 0.23 0.036 0.34l-0.002-0.011c0.315 1.483 0.987 2.855 1.524 3.785-3.819-0.636-5.266-2.469-5.724-3.262-0.281-0.478-0.793-0.793-1.378-0.793-0.001 0-0.002 0-0.003 0h-0.051c-0.716 0-1.435-0.050-2.133-0.148-0.018-0.002-0.039-0.003-0.060-0.003-0.357 0-0.647 0.29-0.647 0.647 0 0.315 0.225 0.577 0.522 0.635l0.004 0.001c0.759 0.107 1.538 0.16 2.315 0.16h0.053c0.107 0 0.208 0.057 0.26 0.148 1.751 3.035 5.778 3.81 7.428 4.002 0.364 0.043 0.711-0.124 0.907-0.436 0.090-0.141 0.143-0.312 0.143-0.496 0-0.189-0.056-0.364-0.153-0.51l0.002 0.003c-0.498-0.773-1.383-2.324-1.742-4.002-0.004-0.019-0.007-0.041-0.007-0.063 0-0.118 0.068-0.221 0.167-0.27l0.002-0.001zM8.324 11.685c-1.236 0-2.24 1.006-2.24 2.24 0 1.237 1.004 2.242 2.24 2.242s2.242-1.004 2.242-2.24c0-1.236-1.006-2.242-2.24-2.242zM8.324 14.875c-0.524-0.001-0.948-0.426-0.948-0.949s0.425-0.949 0.949-0.949c0.001 0 0.001 0 0.002 0h-0c0.524 0.001 0.948 0.426 0.948 0.949s-0.425 0.949-0.949 0.949c-0.001 0-0.001 0-0.002 0h0zM14.718 11.685c-1.236 0-2.24 1.006-2.24 2.24 0 1.237 1.004 2.242 2.24 2.242s2.24-1.004 2.24-2.24c0-1.236-1.004-2.242-2.24-2.242zM14.718 14.875c-0.524-0.001-0.948-0.425-0.948-0.949s0.425-0.949 0.949-0.949c0 0 0.001 0 0.001 0h-0c0.524 0.001 0.948 0.425 0.948 0.949s-0.425 0.949-0.949 0.949c-0 0-0.001 0-0.001 0h0zM21.111 11.685c-1.236 0-2.24 1.006-2.24 2.24 0 1.237 1.004 2.242 2.24 2.242s2.24-1.004 2.24-2.24c0-1.236-1.004-2.242-2.24-2.242zM21.111 14.875c-0.524-0.001-0.948-0.425-0.948-0.949s0.425-0.949 0.949-0.949c0 0 0.001 0 0.001 0h-0c0.524 0 0.949 0.425 0.949 0.949s-0.425 0.949-0.949 0.949v0zM27.506 11.685c-1.236 0-2.242 1.006-2.242 2.24 0 1.237 1.006 2.242 2.24 2.242 1.237 0 2.242-1.004 2.242-2.24s-1.004-2.242-2.24-2.242zM27.506 14.875c-0.524 0-0.949-0.425-0.949-0.949s0.425-0.949 0.949-0.949v0c0.524 0 0.949 0.425 0.949 0.949s-0.425 0.949-0.949 0.949v0z"></path>
</symbol>
<symbol id="icon-chef-hat" viewBox="0 0 35 32">
<path d="M25.172 8.293c-0 0-0.001 0-0.002 0-0.258 0-0.467-0.209-0.467-0.467 0-0.001 0-0.001 0-0.002v0c-0.085-3.713-3.115-6.691-6.841-6.691s-6.756 2.978-6.841 6.683l-0 0.008c0 0.258-0.209 0.467-0.467 0.467s-0.467-0.209-0.467-0.467v0c0.091-4.225 3.537-7.616 7.776-7.616s7.685 3.391 7.776 7.607l0 0.008c0 0 0 0 0 0 0 0.258-0.209 0.467-0.466 0.468h-0z"></path>
<path d="M26.535 18.868c-0.247-0.014-0.443-0.218-0.443-0.468 0-0.248 0.193-0.451 0.436-0.467l0.001-0c3.704-0.022 6.705-3.006 6.754-6.702l0-0.005c-0.038-3.72-3.062-6.72-6.787-6.72-0.018 0-0.036 0-0.054 0l0.003-0c-0.689 0-1.374 0.101-2.035 0.303-0.041 0.013-0.088 0.021-0.137 0.021-0.258 0-0.468-0.209-0.468-0.468 0-0.209 0.138-0.387 0.327-0.446l0.003-0.001c0.689-0.218 1.48-0.344 2.302-0.344 0.003 0 0.006 0 0.010 0h-0c0.015-0 0.032-0 0.049-0 4.241 0 7.684 3.419 7.722 7.651l0 0.004c-0.051 4.212-3.462 7.61-7.674 7.641l-0.003 0h-0.007zM9.187 18.868h-0.005c-4.215-0.031-7.626-3.429-7.677-7.636l-0-0.005c0.038-4.236 3.481-7.655 7.722-7.655 0.017 0 0.035 0 0.052 0h-0.003c0.783 0 1.561 0.115 2.311 0.344 0.21 0.049 0.364 0.235 0.364 0.456 0 0.259-0.21 0.468-0.468 0.468-0.061 0-0.12-0.012-0.173-0.033l0.003 0.001c-0.66-0.202-1.347-0.303-2.036-0.303-0.015-0-0.033-0-0.051-0-3.726 0-6.75 3.002-6.787 6.718l-0 0.004c0.049 3.7 3.049 6.684 6.752 6.707h0.002c0.008-0 0.016-0.001 0.025-0.001 0.259 0 0.468 0.21 0.468 0.468s-0.21 0.468-0.468 0.468c-0.011 0-0.021-0-0.032-0.001l0.001 0z"></path>
<path d="M26.536 30.494h-17.347c0 0 0 0 0 0-0.258 0-0.467-0.209-0.468-0.466v-11.626c0-0.258 0.209-0.467 0.467-0.467s0.467 0.209 0.467 0.467v0 11.158h16.413v-11.158c0.015-0.246 0.219-0.44 0.467-0.44s0.452 0.194 0.467 0.439l0 0.001v11.626c0 0.258-0.209 0.467-0.467 0.467v0z"></path>
<path d="M29.789 25.965h-17.347c-0.246-0.015-0.44-0.219-0.44-0.467s0.194-0.452 0.439-0.467l0.001-0h17.347c0.258 0 0.467 0.209 0.467 0.467s-0.209 0.467-0.467 0.467v0z"></path>
</symbol>
<symbol id="icon-clock" viewBox="0 0 34 32">
<path d="M16.632 0.25c-8.701 0-15.779 7.077-15.779 15.776 0 8.701 7.078 15.779 15.779 15.779 8.699 0 15.776-7.078 15.776-15.778 0-8.701-7.077-15.778-15.776-15.778zM16.632 30.752c-8.12 0-14.726-6.605-14.726-14.725-0.002-8.12 6.606-14.726 14.726-14.726 8.118 0 14.725 6.606 14.725 14.726s-6.606 14.725-14.725 14.725z"></path>
<path d="M17.157 13.934v-5.334c0-0.009 0.001-0.019 0.001-0.029 0-0.291-0.236-0.526-0.526-0.526s-0.526 0.236-0.526 0.526c0 0.010 0 0.020 0.001 0.030l-0-0.001v5.336c-0.736 0.192-1.312 0.768-1.504 1.504h-3.754c-0.009-0.001-0.019-0.001-0.029-0.001-0.291 0-0.526 0.236-0.526 0.526s0.236 0.526 0.526 0.526c0.010 0 0.020-0 0.030-0.001l-0.001 0h3.757c0.234 0.904 1.051 1.578 2.029 1.578 1.16 0 2.104-0.944 2.104-2.104 0-0.978-0.674-1.794-1.579-2.029zM16.632 17.014c-0.581-0-1.052-0.472-1.052-1.053s0.471-1.053 1.053-1.053c0 0 0.001 0 0.001 0h-0c0.581 0 1.052 0.472 1.052 1.053s-0.471 1.053-1.053 1.053c-0 0-0.001 0-0.001 0h0zM16.632 5.445c0.29-0.001 0.525-0.236 0.525-0.526 0 0 0 0 0 0v0-0.526c0-0.009 0.001-0.019 0.001-0.029 0-0.291-0.236-0.526-0.526-0.526s-0.526 0.236-0.526 0.526c0 0.010 0 0.020 0.001 0.030l-0-0.001v0.528c0 0.288 0.235 0.525 0.526 0.525zM16.632 26.482c-0 0-0.001 0-0.002 0-0.291 0-0.526 0.236-0.526 0.526 0 0 0 0 0 0v0 0.525c0 0.291 0.236 0.526 0.526 0.526s0.526-0.236 0.526-0.526v-0.525c0 0 0 0 0 0 0-0.29-0.235-0.526-0.525-0.526h-0zM28.202 15.437h-0.526c-0.291 0-0.526 0.236-0.526 0.526s0.236 0.526 0.526 0.526h0.526c0.291 0 0.526-0.236 0.526-0.526s-0.236-0.526-0.526-0.526v0zM5.587 15.437h-0.526c-0.291 0-0.526 0.236-0.526 0.526s0.236 0.526 0.526 0.526h0.526c0.291 0 0.526-0.236 0.526-0.526s-0.236-0.526-0.526-0.526v0zM24.442 7.408l-0.373 0.373c-0.095 0.095-0.154 0.227-0.154 0.372 0 0.291 0.236 0.526 0.526 0.526 0.145 0 0.277-0.059 0.372-0.154l0.371-0.371c0.095-0.095 0.154-0.227 0.154-0.372 0-0.29-0.235-0.526-0.526-0.526-0.145 0-0.276 0.059-0.371 0.154v0zM8.45 23.4l-0.371 0.373c-0.095 0.095-0.154 0.226-0.154 0.371 0 0.29 0.235 0.526 0.526 0.526 0.145 0 0.277-0.059 0.372-0.154v0l0.371-0.371c0.095-0.095 0.154-0.227 0.154-0.372 0-0.291-0.236-0.526-0.526-0.526-0.145 0-0.277 0.059-0.372 0.154v0zM24.813 23.4c-0.095-0.095-0.227-0.154-0.372-0.154-0.291 0-0.526 0.236-0.526 0.526 0 0.145 0.059 0.277 0.154 0.372l0.373 0.373c0.095 0.095 0.226 0.154 0.371 0.154s0.276-0.059 0.371-0.154v0c0.096-0.095 0.155-0.227 0.155-0.372s-0.059-0.277-0.155-0.372l-0-0-0.371-0.373zM8.822 7.408c-0.095-0.095-0.227-0.154-0.372-0.154-0.291 0-0.527 0.236-0.527 0.527 0 0.146 0.059 0.277 0.155 0.373v0l0.371 0.371c0.095 0.095 0.227 0.155 0.372 0.155s0.277-0.059 0.372-0.155l0-0c0.095-0.095 0.155-0.227 0.155-0.372s-0.059-0.277-0.155-0.372l-0.371-0.371z"></path>
</symbol>
<symbol id="icon-close" viewBox="0 0 32 32">
<path d="M30.354 32c0.909-0.001 1.645-0.737 1.645-1.646 0-0.455-0.184-0.866-0.483-1.164l-28.704-28.709c-0.298-0.298-0.71-0.482-1.164-0.482-0.909 0-1.647 0.737-1.647 1.647 0 0.455 0.184 0.866 0.482 1.164l28.708 28.708c0.322 0.32 0.743 0.484 1.164 0.484z"></path>
<path d="M1.644 32c0.421 0 0.843-0.16 1.164-0.484l28.709-28.706c0.298-0.298 0.482-0.71 0.482-1.164 0-0.909-0.737-1.647-1.647-1.647-0.455 0-0.866 0.184-1.164 0.482l-28.709 28.709c-0.297 0.298-0.481 0.709-0.481 1.163 0 0.909 0.736 1.646 1.645 1.646h0z"></path>
</symbol>
<symbol id="icon-facebook" viewBox="0 0 21 32">
<path d="M18.56 0.006l-4.154-0.006c-4.659 0-7.674 3.091-7.674 7.876v3.631h-4.171c-0.361 0-0.653 0.292-0.653 0.653v0 5.261c0 0.361 0.292 0.651 0.653 0.651h4.171v13.276c0 0.363 0.292 0.653 0.653 0.653h5.444c0.361 0 0.653-0.292 0.653-0.653v0-13.276h4.879c0.359-0.001 0.649-0.292 0.651-0.651v-0l0.002-5.261c0-0.361-0.292-0.653-0.653-0.653v0h-4.879v-3.081c0-1.481 0.352-2.231 2.278-2.231h2.795c0.001 0 0.001 0 0.002 0 0.361 0 0.653-0.292 0.653-0.653 0 0 0 0 0 0v0-4.883c0-0.361-0.292-0.653-0.653-0.653v0z"></path>
</symbol>
<symbol id="icon-instagram" viewBox="0 0 32 32">
<path d="M16.315 32h-0.318c-0.141 0.001-0.307 0.001-0.474 0.001-2.324 0-4.632-0.071-6.921-0.212l0.314 0.015c-2.067-0.126-3.953-0.84-5.455-2.065-1.448-1.182-2.439-2.781-2.942-4.749-0.438-1.716-0.46-3.399-0.483-5.027-0.017-1.167-0.032-2.552-0.035-3.96 0.003-1.415 0.020-2.799 0.035-3.966 0.024-1.629 0.045-3.311 0.483-5.027 0.504-1.971 1.492-3.567 2.942-4.749 1.502-1.224 3.389-1.939 5.457-2.065 1.977-0.125 4.287-0.196 6.614-0.196 0.166 0 0.331 0 0.497 0.001l-0.026-0c0.135-0.001 0.294-0.001 0.454-0.001 2.331 0 4.646 0.071 6.942 0.212l-0.315-0.015c2.067 0.126 3.953 0.84 5.455 2.065 1.448 1.182 2.439 2.779 2.942 4.749 0.438 1.716 0.46 3.399 0.483 5.027 0.017 1.167 0.034 2.552 0.035 3.96v0.007c-0.003 1.406-0.020 2.791-0.035 3.96-0.024 1.629-0.045 3.311-0.483 5.027-0.504 1.969-1.492 3.567-2.942 4.749-1.502 1.224-3.389 1.939-5.457 2.065-1.965 0.125-4.262 0.196-6.575 0.196-0.067 0-0.134-0-0.201-0h0.010zM15.997 29.499c0.141 0.001 0.308 0.001 0.475 0.001 2.273 0 4.529-0.069 6.768-0.206l-0.307 0.015c1.561-0.094 2.917-0.601 4.025-1.506 1.027-0.837 1.735-1.992 2.1-3.431 0.365-1.428 0.387-2.961 0.406-4.443 0.017-1.162 0.034-2.535 0.037-3.929-0.003-1.395-0.020-2.769-0.037-3.929-0.020-1.482-0.040-3.015-0.404-4.443-0.369-1.44-1.075-2.594-2.1-3.431-1.112-0.904-2.466-1.411-4.029-1.506-1.94-0.123-4.206-0.193-6.489-0.193-0.154 0-0.308 0-0.462 0.001l0.024-0c-0.135-0.001-0.294-0.001-0.453-0.001-2.28 0-4.544 0.070-6.789 0.208l0.308-0.015c-1.563 0.094-2.919 0.601-4.029 1.506-1.026 0.837-1.731 1.991-2.099 3.431-0.365 1.428-0.387 2.961-0.406 4.443-0.017 1.162-0.034 2.536-0.037 3.933 0.003 1.388 0.020 2.764 0.037 3.924 0.020 1.482 0.040 3.015 0.404 4.443 0.369 1.44 1.075 2.594 2.1 3.432 1.112 0.904 2.466 1.411 4.029 1.506 2.2 0.135 4.467 0.197 6.927 0.19zM15.938 23.813c-4.313-0.005-7.808-3.5-7.813-7.813v-0c0.005-4.313 3.5-7.808 7.813-7.813h0c4.313 0.005 7.808 3.5 7.813 7.813v0c-0.005 4.314-3.501 7.809-7.814 7.813h-0zM15.938 10.688c-2.933 0.003-5.31 2.379-5.314 5.312v0c0.004 2.933 2.381 5.309 5.313 5.312h0c2.932-0.004 5.308-2.38 5.312-5.312v-0c-0.004-2.932-2.38-5.308-5.312-5.312h-0zM24.625 5.686c-1.036 0-1.875 0.84-1.875 1.875s0.84 1.875 1.875 1.875v0c1.035 0 1.875-0.839 1.875-1.875s-0.839-1.875-1.875-1.875v0z"></path>
</symbol>
<symbol id="icon-location" viewBox="0 0 23 32">
<path d="M11.733 1.195c6.47 0 11.733 5.261 11.733 11.733 0 2.56-0.811 4.992-2.34 7.031l-8.67 11.678c-0.021 0.030-0.055 0.041-0.079 0.064-0.161 0.183-0.396 0.297-0.657 0.297-0.29 0-0.547-0.141-0.707-0.359l-0.002-0.002c-2.498-3.328-7.074-9.551-8.832-11.898l-0.004-0.006-0.011-0.013c-1.354-1.879-2.165-4.227-2.165-6.764 0-0.011 0-0.021 0-0.032v0.002c0-6.47 5.263-11.731 11.733-11.731zM11.733 19.255c3.491-0.010 6.319-2.837 6.33-6.326v-0.001c-0.008-3.493-2.837-6.322-6.329-6.332h-0.001c-3.492 0.010-6.32 2.838-6.33 6.329v0.001c0.010 3.492 2.838 6.32 6.329 6.33h0.001z"></path>
</symbol>
<symbol id="icon-menu" viewBox="0 0 60 32">
<path d="M2 0h56c1.105 0 2 0.895 2 2s-0.895 2-2 2h-56c-1.105 0-2-0.895-2-2s0.895-2 2-2z"></path>
<path d="M2 14h56c1.105 0 2 0.895 2 2s-0.895 2-2 2h-56c-1.105 0-2-0.895-2-2s0.895-2 2-2z"></path>
<path d="M2 28h56c1.105 0 2 0.895 2 2s-0.895 2-2 2h-56c-1.105 0-2-0.895-2-2s0.895-2 2-2z"></path>
</symbol>
<symbol id="icon-people" viewBox="0 0 35 32">
<path d="M11.975 0.729c-3.634 0.007-6.579 2.951-6.585 6.585v0.001c0.005 3.636 2.95 6.582 6.585 6.589h0.001c3.636-0.005 6.583-2.951 6.589-6.586v-0.001c-0.006-3.636-2.952-6.582-6.588-6.587h-0zM11.975 12.798c-3.032 0-5.489-2.464-5.489-5.491 0.006-3.030 2.461-5.484 5.49-5.489h0c3.032 0 5.489 2.466 5.489 5.491-0.005 3.030-2.46 5.486-5.49 5.491h-0zM25.467 3.463c-2.731 0.001-4.944 2.214-4.945 4.945v0c0.002 2.73 2.215 4.942 4.945 4.943h0c2.729-0.002 4.941-2.214 4.943-4.943v-0c-0.001-2.73-2.213-4.943-4.943-4.945h-0zM25.467 12.259c-2.124-0.001-3.845-1.722-3.847-3.845v-0c0.001-2.124 1.723-3.846 3.847-3.847h0c2.123 0.002 3.844 1.723 3.845 3.847v0c-0.002 2.123-1.722 3.843-3.845 3.845h-0z"></path>
<path d="M34.311 20.598c-0.499-3.003-2.365-5.536-5.543-6.863 0 0-1.408 1.064-3.301 1.031-2.068-0.040-3.301-1.031-3.301-1.031s-1.536 0.573-2.774 1.765c-1.145-1.017-3.079-1.846-3.079-1.846s-1.772 1.347-4.345 1.327c-2.7-0.020-4.33-1.327-4.33-1.327s-5.839 2.009-7.074 8.817c0 0-1.319 3.611 1.74 9.005h19.352s1.373-2.392 1.617-3.845h9.624c2.365-3.584 1.415-7.033 1.415-7.033zM20.973 30.378h-17.991c-2.349-4.465-1.332-7.725-1.332-7.725 0.59-3.464 2.818-6.304 5.843-7.732l0.064-0.027c2.695 1.583 6.149 1.583 8.842 0 3.089 1.455 5.318 4.295 5.899 7.697l0.009 0.062c-0.007 0 0.97 4.015-1.334 7.725zM32.258 26.533h-8.765c0.337-1.94-0.108-4.062-0.108-4.062-0.415-2.453-1.555-4.588-3.187-6.232l0.001 0.001c0.542-0.493 1.16-0.915 1.833-1.244l0.046-0.021c0.974 0.559 2.141 0.889 3.385 0.889s2.412-0.33 3.419-0.907l-0.034 0.018c2.289 1.105 3.937 3.225 4.371 5.759l0.007 0.047s0.802 2.722-0.97 5.753z"></path>
</symbol>
<symbol id="icon-phone" viewBox="0 0 32 32">
<path d="M29.43 21.002c-0.010 0-0.022 0-0.033 0-2.028 0-3.979-0.332-5.801-0.946l0.128 0.037c-0.894-0.305-1.991-0.025-2.535 0.534l-3.599 2.718c-4.172-2.228-6.742-4.798-8.938-8.938l2.634-3.505c0.47-0.468 0.761-1.116 0.761-1.831 0-0.281-0.045-0.553-0.128-0.806l0.005 0.018c-0.577-1.697-0.911-3.652-0.911-5.685 0-0.011 0-0.022 0-0.033v0.002c-0.002-1.415-1.157-2.567-2.57-2.567h-5.876c-1.415 0-2.567 1.152-2.567 2.567 0 16.229 13.201 29.433 29.43 29.433 1.415 0 2.567-1.152 2.567-2.567v-5.858c0-1.418-1.152-2.57-2.567-2.57z"></path>
</symbol>
<symbol id="icon-rate" viewBox="0 0 181 32">
<path d="M14.732 3.903c0.4-1.228 2.137-1.228 2.536 0l2.025 6.232c0.179 0.538 0.678 0.92 1.267 0.92h6.553c1.292 0 1.828 1.653 0.784 2.413l-5.301 3.851c-0.335 0.245-0.549 0.637-0.549 1.078 0 0.147 0.024 0.289 0.068 0.422l-0.003-0.009 2.024 6.232c0.4 1.229-1.007 2.251-2.051 1.491l-5.301-3.851c-0.217-0.159-0.489-0.255-0.784-0.255s-0.567 0.096-0.788 0.257l0.004-0.003-5.301 3.851c-1.044 0.76-2.451-0.263-2.051-1.491l2.024-6.232c0.041-0.123 0.065-0.265 0.065-0.412 0-0.442-0.215-0.833-0.546-1.076l-0.004-0.003-5.301-3.851c-1.044-0.76-0.507-2.413 0.784-2.413h6.552c0 0 0 0 0 0 0.589 0 1.088-0.381 1.265-0.911l0.003-0.009 2.025-6.232zM164.065 3.903c0.399-1.228 2.137-1.228 2.536 0l2.025 6.232c0.179 0.539 0.679 0.92 1.268 0.92 0 0 0 0 0 0h6.552c1.292 0 1.828 1.653 0.784 2.413l-5.301 3.851c-0.335 0.245-0.549 0.637-0.549 1.078 0 0.147 0.024 0.289 0.068 0.422l-0.003-0.009 2.024 6.232c0.4 1.229-1.007 2.251-2.051 1.491l-5.301-3.851c-0.217-0.159-0.489-0.255-0.784-0.255s-0.567 0.096-0.788 0.257l0.004-0.003-5.301 3.851c-1.044 0.76-2.451-0.263-2.051-1.491l2.024-6.232c0.041-0.123 0.065-0.265 0.065-0.412 0-0.442-0.215-0.833-0.546-1.076l-0.004-0.003-5.301-3.851c-1.044-0.76-0.508-2.413 0.784-2.413h6.552c0 0 0 0 0 0 0.589 0 1.088-0.381 1.265-0.911l0.003-0.009 2.025-6.232zM126.732 3.903c0.4-1.228 2.137-1.228 2.536 0l2.025 6.232c0.179 0.538 0.678 0.92 1.267 0.92h6.553c1.292 0 1.828 1.653 0.784 2.413l-5.301 3.851c-0.335 0.245-0.549 0.637-0.549 1.078 0 0.147 0.024 0.289 0.068 0.422l-0.003-0.009 2.024 6.232c0.4 1.229-1.007 2.251-2.051 1.491l-5.301-3.851c-0.217-0.159-0.489-0.255-0.784-0.255s-0.567 0.096-0.788 0.257l0.004-0.003-5.301 3.851c-1.044 0.76-2.451-0.263-2.051-1.491l2.024-6.232c0.041-0.123 0.065-0.265 0.065-0.412 0-0.442-0.215-0.833-0.546-1.076l-0.004-0.003-5.301-3.851c-1.045-0.76-0.507-2.413 0.784-2.413h6.552c0 0 0 0 0 0 0.589 0 1.088-0.381 1.265-0.911l0.003-0.009 2.025-6.232zM89.399 3.903c0.4-1.228 2.137-1.228 2.536 0l2.025 6.232c0.179 0.538 0.678 0.92 1.267 0.92h6.553c1.292 0 1.829 1.653 0.784 2.413l-5.301 3.851c-0.335 0.245-0.549 0.637-0.549 1.078 0 0.147 0.024 0.289 0.068 0.422l-0.003-0.009 2.024 6.232c0.4 1.229-1.007 2.251-2.051 1.491l-5.301-3.851c-0.217-0.159-0.489-0.255-0.784-0.255s-0.567 0.096-0.788 0.257l0.004-0.003-5.301 3.851c-1.044 0.76-2.451-0.263-2.051-1.491l2.024-6.232c0.041-0.123 0.065-0.265 0.065-0.412 0-0.442-0.215-0.833-0.546-1.076l-0.004-0.003-5.301-3.851c-1.044-0.76-0.507-2.413 0.784-2.413h6.552c0 0 0 0 0 0 0.589 0 1.088-0.381 1.265-0.911l0.003-0.009 2.025-6.232zM52.065 3.903c0.4-1.228 2.137-1.228 2.536 0l2.025 6.232c0.179 0.538 0.678 0.92 1.267 0.92h6.553c1.292 0 1.828 1.653 0.784 2.413l-5.301 3.851c-0.335 0.245-0.549 0.637-0.549 1.078 0 0.147 0.024 0.289 0.068 0.422l-0.003-0.009 2.024 6.232c0.4 1.229-1.007 2.251-2.051 1.491l-5.301-3.851c-0.217-0.159-0.489-0.255-0.784-0.255s-0.567 0.096-0.788 0.257l0.004-0.003-5.3 3.851c-1.045 0.76-2.452-0.263-2.053-1.491l2.027-6.232c0.041-0.123 0.065-0.264 0.065-0.411 0-0.442-0.215-0.834-0.547-1.077l-0.004-0.003-5.301-3.851c-1.045-0.76-0.507-2.413 0.784-2.413h6.552c0 0 0 0 0 0 0.589 0 1.088-0.381 1.265-0.911l0.003-0.009 2.025-6.232z"></path>
</symbol>
<symbol id="icon-Star" viewBox="0 0 34 32">
<path d="M15.24 1.561c0.505-1.551 2.7-1.551 3.203 0l2.558 7.872c0.227 0.68 0.857 1.162 1.6 1.162h8.278c1.632 0 2.309 2.088 0.99 3.048l-6.696 4.864c-0.423 0.31-0.694 0.804-0.694 1.362 0 0.186 0.030 0.365 0.086 0.533l-0.003-0.012 2.557 7.872c0.505 1.553-1.272 2.843-2.592 1.883l-6.695-4.864c-0.274-0.201-0.618-0.322-0.99-0.322s-0.716 0.121-0.995 0.325l0.005-0.003-6.696 4.864c-1.319 0.96-3.096-0.332-2.59-1.883l2.557-7.872c0.052-0.155 0.082-0.335 0.082-0.521 0-0.558-0.271-1.052-0.689-1.359l-0.005-0.003-6.696-4.864c-1.319-0.96-0.64-3.048 0.99-3.048h8.276c0 0 0 0 0 0 0.744 0 1.374-0.482 1.598-1.15l0.003-0.012 2.56-7.872z"></path>
</symbol>
<symbol id="icon-twitter" viewBox="0 0 41 32">
<path d="M40.42 3.789c-1.502 0.64-3.104 1.067-4.774 1.274 1.709-0.992 2.998-2.546 3.629-4.404l0.017-0.057c-1.6 0.93-3.371 1.587-5.254 1.954-1.53-1.577-3.669-2.556-6.037-2.556-0.006 0-0.012 0-0.019 0h0.001c-4.587 0-8.279 3.627-8.279 8.077 0 0.64 0.055 1.254 0.192 1.841-6.87-0.317-12.934-3.518-17.052-8.41l-0.029-0.036c-0.709 1.165-1.13 2.574-1.133 4.080v0.001c0 2.795 1.476 5.276 3.68 6.709-1.377-0.036-2.661-0.4-3.788-1.016l0.044 0.022v0.090c0 3.925 2.871 7.183 6.639 7.934-0.674 0.179-1.408 0.265-2.172 0.265-0.533 0-1.067-0.030-1.57-0.137 1.073 3.196 4.122 5.547 7.744 5.623-2.809 2.149-6.371 3.443-10.235 3.443-0.014 0-0.028-0-0.042-0h0.002c-0.036 0-0.079 0-0.122 0-0.656 0-1.303-0.040-1.938-0.117l0.076 0.008c3.58 2.273 7.94 3.623 12.615 3.623 0.034 0 0.069-0 0.103-0l-0.005 0c15.249 0 23.586-12.309 23.586-22.976 0-0.356-0.013-0.702-0.032-1.045 1.638-1.149 3.017-2.539 4.118-4.135l0.036-0.055z"></path>
</symbol>
<symbol id="icon-rate-1" viewBox="0 0 181 32">
<path d="M14.732 3.903c0.4-1.228 2.137-1.228 2.536 0l2.025 6.232c0.179 0.538 0.678 0.92 1.267 0.92h6.553c1.292 0 1.828 1.653 0.784 2.413l-5.301 3.851c-0.335 0.245-0.549 0.637-0.549 1.078 0 0.147 0.024 0.289 0.068 0.422l-0.003-0.009 2.024 6.232c0.4 1.229-1.007 2.251-2.051 1.491l-5.301-3.851c-0.217-0.159-0.489-0.255-0.784-0.255s-0.567 0.096-0.788 0.257l0.004-0.003-5.301 3.851c-1.044 0.76-2.451-0.263-2.051-1.491l2.024-6.232c0.041-0.123 0.065-0.265 0.065-0.412 0-0.442-0.215-0.833-0.546-1.076l-0.004-0.003-5.301-3.851c-1.044-0.76-0.507-2.413 0.784-2.413h6.552c0 0 0 0 0 0 0.589 0 1.088-0.381 1.265-0.911l0.003-0.009 2.025-6.232z"></path>
<path stroke-linejoin="miter" stroke-linecap="butt" stroke-miterlimit="4" stroke-width="1.3333" d="M164.699 4.109c0.089-0.271 0.339-0.463 0.635-0.463s0.546 0.192 0.633 0.458l0.001 0.005 2.024 6.231c0.268 0.809 1.018 1.383 1.902 1.383 0 0 0 0 0 0h6.552c0.368 0 0.666 0.299 0.666 0.667 0 0.22-0.107 0.416-0.272 0.537l-0.002 0.001-5.301 3.852c-0.502 0.368-0.825 0.955-0.825 1.618 0 0.221 0.036 0.433 0.102 0.632l-0.004-0.014 2.025 6.232c0.021 0.062 0.033 0.133 0.033 0.207 0 0.368-0.298 0.667-0.667 0.667-0.148 0-0.284-0.048-0.395-0.129l0.002 0.001-5.3-3.852c-0.326-0.239-0.734-0.382-1.176-0.382s-0.85 0.143-1.182 0.386l0.006-0.004-5.3 3.852c-0.109 0.080-0.245 0.128-0.393 0.128-0.368 0-0.667-0.298-0.667-0.667 0-0.075 0.012-0.146 0.035-0.213l-0.001 0.005 2.025-6.231c0.062-0.185 0.098-0.397 0.098-0.618 0-0.663-0.322-1.25-0.819-1.614l-0.006-0.004-5.301-3.852c-0.167-0.123-0.274-0.318-0.274-0.539 0-0.368 0.298-0.666 0.666-0.667h6.552c0 0 0 0 0 0 0.884 0 1.634-0.573 1.898-1.369l0.004-0.014 2.024-6.231z"></path>
<path d="M126.732 3.903c0.4-1.228 2.137-1.228 2.536 0l2.025 6.232c0.179 0.538 0.678 0.92 1.267 0.92h6.553c1.292 0 1.828 1.653 0.784 2.413l-5.301 3.851c-0.335 0.245-0.549 0.637-0.549 1.078 0 0.147 0.024 0.289 0.068 0.422l-0.003-0.009 2.024 6.232c0.4 1.229-1.007 2.251-2.051 1.491l-5.301-3.851c-0.217-0.159-0.489-0.255-0.784-0.255s-0.567 0.096-0.788 0.257l0.004-0.003-5.301 3.851c-1.044 0.76-2.451-0.263-2.051-1.491l2.024-6.232c0.041-0.123 0.065-0.265 0.065-0.412 0-0.442-0.215-0.833-0.546-1.076l-0.004-0.003-5.301-3.851c-1.045-0.76-0.507-2.413 0.784-2.413h6.552c0 0 0 0 0 0 0.589 0 1.088-0.381 1.265-0.911l0.003-0.009 2.025-6.232zM89.399 3.903c0.4-1.228 2.137-1.228 2.536 0l2.025 6.232c0.179 0.538 0.678 0.92 1.267 0.92h6.553c1.292 0 1.829 1.653 0.784 2.413l-5.301 3.851c-0.335 0.245-0.549 0.637-0.549 1.078 0 0.147 0.024 0.289 0.068 0.422l-0.003-0.009 2.024 6.232c0.4 1.229-1.007 2.251-2.051 1.491l-5.301-3.851c-0.217-0.159-0.489-0.255-0.784-0.255s-0.567 0.096-0.788 0.257l0.004-0.003-5.301 3.851c-1.044 0.76-2.451-0.263-2.051-1.491l2.024-6.232c0.041-0.123 0.065-0.265 0.065-0.412 0-0.442-0.215-0.833-0.546-1.076l-0.004-0.003-5.301-3.851c-1.044-0.76-0.507-2.413 0.784-2.413h6.552c0 0 0 0 0 0 0.589 0 1.088-0.381 1.265-0.911l0.003-0.009 2.025-6.232zM52.065 3.903c0.4-1.228 2.137-1.228 2.536 0l2.025 6.232c0.179 0.538 0.678 0.92 1.267 0.92h6.553c1.292 0 1.828 1.653 0.784 2.413l-5.301 3.851c-0.335 0.245-0.549 0.637-0.549 1.078 0 0.147 0.024 0.289 0.068 0.422l-0.003-0.009 2.024 6.232c0.4 1.229-1.007 2.251-2.051 1.491l-5.301-3.851c-0.217-0.159-0.489-0.255-0.784-0.255s-0.567 0.096-0.788 0.257l0.004-0.003-5.3 3.851c-1.045 0.76-2.452-0.263-2.053-1.491l2.027-6.232c0.041-0.123 0.065-0.264 0.065-0.411 0-0.442-0.215-0.834-0.547-1.077l-0.004-0.003-5.301-3.851c-1.045-0.76-0.507-2.413 0.784-2.413h6.552c0 0 0 0 0 0 0.589 0 1.088-0.381 1.265-0.911l0.003-0.009 2.025-6.232z"></path>
</symbol>
<symbol id="icon-logo" viewBox="0 0 71 32">
<path d="M42.262 15.997c0 0.261-0.008 0.521 0 0.782 0.089 2.653-0.736 5.043-2.060 7.296-0.362 0.59-0.778 1.348-1.165 2.123l-0.086 0.19c-0.316 0.649-0.754 1.104-1.435 1.37-0.381 0.148-0.734 0.405-1.053 0.669-1.469 1.218-3.136 2.091-4.919 2.705-1.184 0.408-2.403 0.767-3.69 0.751-0.383-0.005-0.768 0.114-1.152 0.115s-0.768-0.124-1.149-0.108c-1.659 0.072-3.195-0.441-4.721-0.979-1.665-0.586-3.136-1.513-4.519-2.617-1.952-1.558-3.343-3.52-4.366-5.766-0.551-1.211-1-2.46-1.126-3.803-0.021-0.223-0.095-0.444-0.16-0.66-0.464-1.507-0.197-2.985 0.090-4.486 0.22-1.148 0.445-2.283 0.873-3.373 1.13-2.884 2.925-5.245 5.41-7.1 2.072-1.545 4.392-2.494 6.914-2.903 2.894-0.468 5.718-0.131 8.459 0.963 1.367 0.548 2.658 1.241 3.785 2.159 1.051 0.856 1.999 1.859 2.895 2.883 0.812 0.928 1.388 2.034 1.903 3.162 0.804 1.762 1.328 3.586 1.275 5.546-0.012 0.362-0.003 0.721-0.004 1.080zM41.151 12.427c-0.080-0.616-0.13-1.33-0.28-2.022-0.427-1.992-1.576-3.547-3.107-4.818-0.87-0.722-1.817-1.349-2.752-1.988-0.316-0.216-0.684-0.415-1.053-0.481-0.95-0.176-1.91-0.34-2.873-0.389-1.671-0.086-3.172-0.518-4.433-1.685-0.928-0.858-1.939-0.941-2.904-0.186-1.094 0.855-2.339 1.358-3.607 1.855-0.93 0.364-1.825 0.823-2.72 1.276-0.747 0.379-1.182 0.971-1.172 1.867 0.006 0.503-0.223 0.923-0.687 1.201-0.425 0.258-0.788 0.513-1.133 0.789l0.021-0.016c-0.989 0.781-1.76 1.661-1.926 3.027-0.132 1.080-0.457 2.148-1.194 3.038-0.238 0.293-0.396 0.659-0.44 1.059l-0.001 0.009c-0.068 0.808-0.040 1.625-0.020 2.437 0.005 0.217 0.099 0.45 0.21 0.642 0.293 0.519 0.568 0.948 0.863 1.362l-0.032-0.047c0.724 1.010 1.353 2.046 1.499 3.329 0.141 1.244 0.739 2.257 1.751 3.030 1.466 1.121 2.88 2.311 4.367 3.402 0.8 0.588 1.656 1.102 2.711 1.221s2.089 0.407 3.035 0.941c0.198 0.107 0.416 0.174 0.64 0.197 1.334 0.144 2.569-0.188 3.741-0.814 0.265-0.147 0.635-0.329 1.012-0.5l0.115-0.046c0.916-0.412 1.931-0.682 2.729-1.255 0.888-0.639 1.837-0.923 2.855-1.101 0.44-0.078 0.8-0.26 1.086-0.588 0.342-0.39 0.658-0.802 1.014-1.179 0.369-0.389 0.635-0.802 0.699-1.356 0.099-0.849 0.461-1.599 0.92-2.319 0.777-1.217 1.22-2.562 1.449-3.992 0.060-0.375 0.095-0.692-0.090-1.022-0.535-0.953-0.317-2.034-0.486-3.049-0.086-0.549 0.112-1.148 0.194-1.832l-0.002 0.001zM34.71 2.909c-0.225-0.251-0.297-0.364-0.4-0.434-0.185-0.128-0.386-0.233-0.583-0.344-1.679-0.95-3.519-1.412-5.399-1.743-0.377-0.068-0.774-0.037-1.16-0.023-0.1 0.004-0.22 0.102-0.284 0.19-0.029 0.040 0.037 0.18 0.092 0.247 0.412 0.49 0.945 0.867 1.553 1.084l0.025 0.008c1.061 0.384 2.177 0.594 3.304 0.623 0.478 0.013 0.954 0.104 1.429 0.169 0.406 0.058 0.811 0.127 1.421 0.223zM20.441 30.284c-1.127-0.925-2.116-1.751-3.121-2.556-0.832-0.666-1.683-1.309-2.534-1.952-0.096-0.072-0.247-0.070-0.456-0.124 1.025 1.728 4.449 4.354 6.111 4.632zM12.846 8.699c0.68-0.521 1.309-1.070 2-1.524 0.968-0.634 1.339-1.421 1.11-2.773-0.687 0.564-1.177 1.244-1.707 1.861-0.56 0.651-0.975 1.426-1.442 2.155-0.036 0.059 0.023 0.175 0.039 0.281zM35.774 28.421c-0.634-0.044-1.273 0.069-1.671 0.412-0.755 0.652-1.653 0.98-2.567 1.306-0.48 0.171-0.932 0.422-1.384 0.662-0.063 0.033-0.074 0.209-0.061 0.313 0.005 0.035 0.174 0.092 0.243 0.069 0.82-0.281 1.668-0.507 2.445-0.882 0.953-0.459 1.847-1.040 2.759-1.579 0.096-0.054 0.146-0.181 0.235-0.299zM11.544 19.382c-0.182 0.54-0.146 0.838-0.032 1.157 0.318 0.882 0.511 1.814 1.084 2.585 0.213 0.286 0.256 0.925 0.648 0.787 0.345-0.12-0.059-0.626-0.082-0.968-0.090-1.304-0.773-2.355-1.618-3.561zM17.696 3.141l0.085 0.128c0.474-0.176 0.952-0.343 1.421-0.532 2.468-0.947 3.473-1.369 4.475-1.799l-1.426 0.544c0.204-0.087 0.391-0.225 0.566-0.366 0.049-0.040 0.040-0.175 0.025-0.258-0.008-0.037-0.104-0.078-0.16-0.080-0.095 0.002-0.189 0.018-0.279 0.046-1.377 0.393-2.676 0.974-3.919 1.68-0.291 0.165-0.526 0.422-0.787 0.636zM41.883 17.147c0.083-0.097 0.149-0.137 0.153-0.183 0.134-1.421-0.016-2.829-0.21-4.233-0.009-0.070-0.107-0.171-0.174-0.18-0.073-0.009-0.187 0.052-0.232 0.117-0.073 0.105-0.118 0.225-0.132 0.352-0.073 1.158 0.003 2.321 0.226 3.46 0.044 0.23 0.233 0.433 0.367 0.668zM11.212 13.226c0.537-0.206 0.617-0.578 0.676-0.914 0.14-0.82 0.491-1.61 0.375-2.477-0.562 1.035-1.060 2.084-1.051 3.392h-0zM24.219 31.234c-1.204-0.535-1.531-0.591-2.604-0.442 0.455 0.174 0.864 0.448 1.276 0.453 0.429 0.006 0.894 0.534 1.329-0.011h-0z"></path>
<path d="M26.704 20.593c-0.824-0.014-1.39-0.361-1.809-1.029-0.39-0.624-1.039-0.947-1.634-1.332-0.75-0.484-1.36-1.030-1.532-2.012-0.12-0.666 0.019-1.244 0.288-1.769 0.226-0.439 0.629-0.847 1.052-1.109 0.459-0.283 0.84-0.55 1.052-1.073 0.24-0.602 0.845-0.638 1.38-0.746 0.504-0.102 1.017-0.167 1.514-0.295 0.68-0.174 1.297-0.12 1.794 0.412 0.384 0.412 0.832 0.708 1.332 0.958 0.52 0.26 0.691 0.563 0.529 1.107-0.111 0.368-0.004 0.62 0.133 0.914 0.15 0.321 0.303 0.647 0.407 0.986 0.343 1.128-0.052 2.077-1.106 2.579-0.654 0.311-1.154 0.726-1.316 1.456-0.065 0.294-0.248 0.461-0.507 0.537-0.521 0.153-1.050 0.279-1.577 0.416zM30.162 15.865c0.017-1.987-1.484-3.576-3.435-3.579-1.751 0-3.512 1.19-3.58 3.469-0.055 1.824 1.459 3.524 3.432 3.53 2.403 0.012 3.536-1.663 3.583-3.42zM23.128 17.765c0-0.255 0.024-0.385-0.004-0.503-0.259-1.079-0.427-2.149 0.16-3.188 0.042-0.074-0.055-0.229-0.088-0.346-0.115 0.037-0.254 0.045-0.341 0.117-0.97 0.799-1.403 2.718 0.273 3.92zM26.729 11.788c0.406 0.149 0.638 0.255 0.88 0.321 0.894 0.238 1.656 0.664 2.187 1.451 0.105 0.155 0.24 0.385 0.44 0.209 0.106-0.095 0.141-0.382 0.080-0.526-0.082-0.191-0.27-0.43-0.451-0.468-0.491-0.103-0.76-0.46-1.080-0.771-0.538-0.518-1.139-0.681-2.055-0.215zM26.674 19.61l-0.012-0.075c-0.257 0-0.517-0.023-0.771 0.009-0.131 0.016-0.249 0.127-0.373 0.196 0.113 0.1 0.21 0.257 0.34 0.289 0.692 0.176 1.391 0.213 2.074-0.055 0.117-0.046 0.247-0.106 0.32-0.2 0.065-0.080 0.086-0.223 0.073-0.331-0.005-0.040-0.167-0.101-0.247-0.088-0.469 0.074-0.936 0.167-1.403 0.254l-0.002 0.001zM30.217 17.572c0.48-0.089 0.694-0.361 0.722-0.778 0.021-0.352 0.015-0.705-0.015-1.056-0.008-0.092-0.137-0.175-0.21-0.263-0.107 0.101-0.324 0.238-0.304 0.299 0.195 0.609-0.213 1.155-0.194 1.798v0.001zM34.606 20.322c-0.028 0.014-0.139 0.108-0.259 0.121-0.11 0.013-0.27-0.024-0.338-0.101-0.322-0.359-0.642-0.75-0.945-1.154l-0.032-0.045c-0.080-0.109-0.113-0.401-0.067-0.426 0.15-0.083 0.443-0.169 0.508-0.098 0.386 0.427 0.726 0.897 1.074 1.358 0.034 0.046 0.024 0.125 0.059 0.346zM18.269 23.668c0.178 0.014 0.531 0.025 0.874 0.084 0.086 0.015 0.2 0.183 0.2 0.284s-0.099 0.274-0.185 0.295c-0.668 0.167-1.332 0.207-1.923-0.241-0.059-0.055-0.095-0.133-0.095-0.22 0-0.010 0-0.019 0.001-0.028l-0 0.001c0.013-0.067 0.116-0.16 0.186-0.165 0.256-0.022 0.513-0.010 0.942-0.010zM39.197 9.562l0.252 0.139c-0.071 0.129-0.115 0.336-0.22 0.373-0.406 0.157-0.9 0.302-1.408 0.411l-0.068 0.012c-0.144 0.028-0.354-0.114-0.487-0.232-0.153-0.136-0.062-0.431 0.132-0.461 0.569-0.088 1.142-0.155 1.798-0.242zM22.197 26.541c0.268 0.125 0.491 0.16 0.6 0.294 0.299 0.372 0.572 0.764 0.818 1.174 0.12 0.195 0.010 0.406-0.192 0.462-0.111 0.031-0.311-0.060-0.393-0.16-0.303-0.364-0.601-0.767-0.874-1.188l-0.030-0.049c-0.064-0.102 0.035-0.308 0.071-0.532zM32.679 11.018c0.017-0.114 0-0.244 0.053-0.294 0.072-0.066 0.226-0.12 0.3-0.085 0.101 0.049 0.167 0.182 0.237 0.286 0.194 0.292 0.385 0.584 0.569 0.882 0.082 0.134 0.193 0.276 0.2 0.42 0.008 0.133-0.073 0.306-0.173 0.398-0.056 0.051-0.285 0.018-0.341-0.053-0.37-0.471-0.813-0.913-0.846-1.554zM33.828 6.010c-0.080 0.481-0.112 0.836-0.205 1.175-0.059 0.183-0.17 0.345-0.32 0.465-0.106 0.086-0.291 0.073-0.44 0.105-0.012-0.14-0.055-0.286-0.030-0.419 0.078-0.41 0.182-0.815 0.276-1.221 0.007-0.032 0.005-0.066 0.014-0.096 0.073-0.246 0.233-0.433 0.487-0.331 0.128 0.051 0.188 0.276 0.218 0.323zM26.934 9.14c0.224 0.028 0.516 0.044 0.793 0.111 0.095 0.023 0.234 0.194 0.218 0.268-0.029 0.132-0.138 0.306-0.254 0.345-0.183 0.058-0.379 0.059-0.563 0.003-0.32-0.102-0.617-0.136-0.937-0.002-0.21 0.088-0.406-0.005-0.462-0.214-0.075-0.281 0.135-0.417 0.372-0.457 0.252-0.042 0.512-0.035 0.833-0.054zM31.922 22.97c-0.091 0.398-0.16 0.748-0.258 1.089-0.019 0.067-0.16 0.158-0.219 0.142-0.106-0.026-0.256-0.11-0.278-0.197-0.026-0.097-0.040-0.209-0.040-0.324 0-0.090 0.009-0.177 0.026-0.262l-0.001 0.008c0.075-0.35 0.149-0.682 0.008-1.039-0.068-0.171-0.048-0.444 0.211-0.444 0.14 0 0.34 0.174 0.403 0.317 0.102 0.229 0.109 0.498 0.149 0.71zM27.986 22.868c-0.052 0.093-0.077 0.204-0.146 0.251-0.421 0.291-0.843 0.584-1.286 0.838-0.114 0.065-0.312 0.025-0.457-0.018-0.212-0.063-0.256-0.343-0.080-0.455 0.342-0.231 0.822-0.531 1.31-0.82l0.162-0.088c0.080-0.046 0.24 0.004 0.343 0.055 0.070 0.035 0.1 0.149 0.153 0.237zM22.621 4.155c0.069 0.040 0.197 0.075 0.215 0.139 0.167 0.618 0.328 1.238 0.461 1.864 0.037 0.174-0.192 0.27-0.346 0.167-0.484-0.327-0.785-1.536-0.503-2.042 0.029-0.050 0.101-0.076 0.173-0.128zM28.596 5.911c-0.146-0.097-0.303-0.147-0.324-0.231-0.023-0.091 0.053-0.248 0.134-0.321 0.355-0.318 0.726-0.617 1.111-0.897 0.13-0.092 0.4-0.157 0.5-0.086 0.236 0.167 0.112 0.401-0.053 0.573-0.221 0.231-0.44 0.476-0.694 0.663-0.195 0.141-0.445 0.201-0.675 0.299zM19.403 9.177l-0.353 0.335c-0.101-0.11-0.251-0.201-0.293-0.331-0.121-0.342-0.274-0.862-0.41-1.389l-0.036-0.167c-0.018-0.072 0.040-0.219 0.1-0.243 0.098-0.041 0.259-0.056 0.334 0 0.146 0.108 0.314 0.254 0.362 0.417 0.126 0.425 0.192 0.87 0.297 1.377zM15.533 17.757c-0.325 0.597-0.571 1.208-1.175 1.533-0.101 0.055-0.326-0.015-0.435-0.102-0.185-0.147 0-0.27 0.090-0.395 0.283-0.391 0.545-0.8 0.846-1.176 0.078-0.097 0.275-0.144 0.408-0.131 0.091 0.009 0.166 0.164 0.265 0.272zM19.196 17.807c0.169 0.098 0.292 0.128 0.315 0.192 0.038 0.106 0.057 0.272 0 0.346-0.093 0.117-0.252 0.185-0.388 0.263-0.355 0.204-0.704 0.419-1.074 0.594-0.112 0.053-0.316 0.037-0.416-0.035-0.206-0.147-0.134-0.383 0.032-0.487 0.507-0.318 1.039-0.597 1.531-0.873zM37.53 15.106c-0.13 0.295-0.313 0.74-0.53 1.167-0.034 0.066-0.244 0.102-0.333 0.063-0.083-0.037-0.173-0.205-0.156-0.295 0.087-0.476 0.183-0.952 0.33-1.411 0.045-0.14 0.247-0.267 0.402-0.314 0.058-0.018 0.209 0.201 0.28 0.334 0.041 0.075 0.007 0.191 0.007 0.457zM15.431 11.562c0.574 0.517 0.506 1.218 0.569 1.866 0.012 0.12-0.137 0.293-0.256 0.38-0.062 0.046-0.316-0.027-0.322-0.070-0.071-0.473-0.148-1.15-0.206-1.832l-0.009-0.138c-0.005-0.056 0.131-0.125 0.224-0.205zM28.841 27.561c0.096 0.025 0.191 0.056 0.284 0.093 0.344 0.16 0.691 0.316 1.028 0.493 0.16 0.083 0.32 0.188 0.435 0.321 0.133 0.154-0.019 0.451-0.204 0.41-0.625-0.135-1.236-0.325-1.704-0.794-0.069-0.069-0.068-0.243-0.045-0.358 0.013-0.065 0.134-0.11 0.207-0.165zM21.23 11.751c0.033 0.104 0.146 0.265 0.107 0.366-0.21 0.535-0.453 1.058-0.701 1.577-0.030 0.064-0.16 0.121-0.237 0.11-0.068-0.009-0.16-0.103-0.178-0.175-0.131-0.579 0.283-1.615 0.744-1.876 0.047-0.027 0.123-0.004 0.265-0.004zM39.113 20.539c-0.072-0.046-0.222-0.101-0.3-0.209-0.032-0.043 0.069-0.239 0.156-0.302 0.336-0.252 0.723-0.512 1.123-0.753l0.064-0.036c0.11-0.065 0.34-0.069 0.421 0.003 0.075 0.068 0.086 0.321 0.018 0.414-0.343 0.48-0.776 0.846-1.483 0.882zM36.737 24.67c-0.297-0.031-0.426-0.034-0.549-0.062-0.052-0.012-0.131-0.074-0.131-0.114-0.001-0.008-0.001-0.017-0.001-0.026 0-0.086 0.026-0.167 0.069-0.234l-0.001 0.002c0.064-0.073 0.147-0.125 0.24-0.151 0.457-0.138 0.915-0.276 1.38-0.388 0.101-0.024 0.313 0.042 0.326 0.1 0.031 0.137-0.006 0.303-0.059 0.442-0.028 0.073-0.142 0.133-0.228 0.16-0.398 0.11-0.797 0.207-1.045 0.272zM22.962 21.354c-0.033 0.14-0.086 0.451-0.189 0.743-0.025 0.073-0.225 0.142-0.317 0.116s-0.2-0.178-0.197-0.274c0.009-0.541 0.036-1.083 0.091-1.622 0.012-0.117 0.16-0.221 0.246-0.331 0.102 0.109 0.268 0.205 0.294 0.329 0.058 0.279 0.046 0.573 0.072 1.039zM44.4 4.422c0-1.146 0.276-2.016 0.829-2.607 0.559-0.599 1.275-0.898 2.148-0.898s1.567 0.258 2.081 0.775c0.521 0.517 0.782 1.342 0.782 2.475s-0.276 1.99-0.829 2.57-1.29 0.869-2.213 0.869c-0.797 0-1.45-0.23-1.959-0.69-0.264-0.24-0.471-0.57-0.622-0.992-0.144-0.428-0.216-0.929-0.216-1.502zM47.348 1.012c-0.634 0-1.155 0.283-1.563 0.85-0.402 0.567-0.603 1.399-0.603 2.494s0.192 1.896 0.575 2.4c0.383 0.504 0.892 0.756 1.526 0.756 0.64 0 1.161-0.284 1.563-0.85 0.408-0.573 0.612-1.402 0.612-2.485 0-1.089-0.194-1.889-0.584-2.4-0.383-0.51-0.892-0.765-1.526-0.765zM51.869 7.569h-0.782v-6.614h0.782v3.042h3.061v-3.042h0.782v6.614h-0.782v-3.477h-3.061v3.477zM59.73 7.569h-0.123l0.819-6.614h0.311l1.978 6.113 1.969-6.113h0.311l0.819 6.614h-0.782l-0.65-5.291-1.705 5.291h-0.594l-1.724-5.225-0.631 5.225zM71.032 0.955c0.119 0.119 0.179 0.274 0.179 0.463 0 0.158-0.035 0.318-0.104 0.482l-1.686 3.429v2.239h-0.782v-2.031l-1.884-4.582h0.801l1.799 4.261 1.639-3.316c0.069-0.158 0.104-0.321 0.104-0.491s-0.047-0.302-0.141-0.397l0.075-0.057zM1.328 9.306c0.487-0.022 0.963-0.033 1.427-0.033 0.476 0 0.974 0.050 1.494 0.15 0.531 0.1 1.051 0.288 1.56 0.566 0.518 0.264 0.955 0.617 1.306 1.042l0.005 0.007c0.365 0.422 0.658 0.983 0.879 1.682s0.332 1.548 0.332 2.547c0 0.999-0.166 1.898-0.498 2.697-0.321 0.788-0.763 1.393-1.328 1.815-1.095 0.821-2.418 1.232-3.967 1.232-0.542 0-1.112-0.023-1.71-0.067h-0.83v-11.637h1.328zM1.377 20.811c0.233 0.023 0.526 0.033 0.88 0.033s0.62-0.006 0.797-0.017c0.177-0.011 0.421-0.055 0.73-0.133 0.33-0.094 0.616-0.214 0.885-0.361l-0.022 0.011c0.266-0.144 0.542-0.355 0.83-0.632 0.299-0.291 0.553-0.625 0.753-0.994l0.011-0.022c0.476-0.91 0.713-2.098 0.713-3.563 0-1.043-0.127-1.943-0.382-2.697-0.255-0.766-0.548-1.332-0.88-1.698-0.321-0.363-0.714-0.656-1.157-0.857l-0.022-0.009c-0.465-0.222-0.836-0.35-1.112-0.383-0.271-0.032-0.585-0.050-0.904-0.050-0.021 0-0.041 0-0.062 0l0.003-0c-0.365 0-0.719 0.017-1.062 0.050v11.322zM44.67 20.944h-0.216v-11.655h0.564l6.905 10.772v-10.772h0.216v11.655h-1.212l-6.258-9.657v9.657zM62.359 9.289h0.216v6.66c0 1.743-0.343 3.025-1.029 3.846-0.686 0.81-1.582 1.216-2.689 1.216-0.697 0-1.289-0.061-1.776-0.183-0.487-0.133-0.946-0.372-1.378-0.716-0.885-0.688-1.328-2.076-1.328-4.162v-6.66h1.378v6.643c0 2.020 0.304 3.369 0.913 4.046 0.31 0.333 0.631 0.561 0.963 0.682 0.343 0.122 0.752 0.183 1.228 0.183 1.062 0 1.909-0.389 2.539-1.166 0.642-0.788 0.963-2.037 0.963-3.746v-6.643zM68.237 20.944h-1.378v-11.488h-2.871v-0.166h7.137v0.167h-2.888v11.488z"></path>
</symbol>
<symbol id="icon-up-button" viewBox="0 0 32 32">
<path d="M16 0c-8.837 0-16 7.163-16 16s7.163 16 16 16 16-7.164 16-16-7.163-16-16-16zM16 30c-7.732 0-14-6.268-14-14s6.268-14 14-14c7.732 0 14 6.268 14 14s-6.268 14-14 14zM16.879 11.464c-0.24-0.24-0.568-0.314-0.879-0.26-0.31-0.055-0.639 0.020-0.879 0.26l-7.657 7.657c-0.391 0.391-0.391 1.024 0 1.414 0.391 0.391 1.024 0.391 1.414 0l7.122-7.121 7.121 7.121c0.391 0.391 1.024 0.391 1.414 0 0.391-0.391 0.391-1.024 0-1.414l-7.656-7.657z"></path>
</symbol>
</defs>
</svg>
